<svg width="366" height="63" viewBox="0 0 366 63" fill="none" xmlns="http://www.w3.org/2000/svg">
<path d="M22.8203 61.9468H0V7.28571H22.8203V61.9468Z" fill="#FE6839"/>
<path d="M54.7033 39.6224V61.9574H32.4316C33.3917 51.924 42.9292 41.1205 54.6928 39.6224H54.7033Z" fill="#FE6839"/>
<path d="M32.4626 7.28572H54.7238V29.4941C44.4583 28.7872 33.4227 18.2686 32.4626 7.28572Z" fill="#FE6839"/>
<path d="M34.4886 40.9095C30.8804 40.8779 28.2112 38.1242 28.264 34.5055C28.3167 30.9711 31.0176 28.3125 34.5414 28.3125C38.2023 28.3125 40.9454 31.1399 40.8716 34.8009C40.7977 38.2719 38.0124 40.9412 34.4781 40.899L34.4886 40.9095Z" fill="#FE6839"/>
<path d="M124.242 47.5502V54.312H85.7136V14.9152H124.159V21.6653H93.8254V32.1484H118.642V37.1962H93.8254V47.5502H124.242Z" fill="#F9F9F9"/>
<path d="M138.6 41.0115C139.082 45.308 144.188 48.2663 150.715 48.3132C156.726 48.3485 159.696 46.2589 159.696 42.9132C159.696 39.2388 155.552 38.3349 147.346 37.1962C138.119 35.6936 130.841 33.1579 130.841 25.7857C130.841 18.4135 136.957 14.0935 148.508 14.0935C160.059 14.0935 166.176 19.294 166.07 27.6875H158.134C157.876 22.9448 153.779 20.914 148.156 20.914C142.533 20.914 139.035 22.3461 139.035 25.9501C139.035 29.8944 143.038 30.5871 151.912 32.1014C160.776 33.4514 167.702 35.5997 167.702 43.1715C167.702 50.7433 162.337 55.1102 150.48 55.1102C136.029 55.1102 129.855 46.1298 130.395 40.988H138.612L138.6 41.0115Z" fill="#F9F9F9"/>
<path d="M206.474 54.312L182.937 33.6627V54.312H174.825V14.9152H182.937V33.5688L203.34 14.9152H215.396L193.866 33.4397L218.178 54.312H206.474Z" fill="#F9F9F9"/>
<path d="M217.72 34.6136C217.72 21.8062 226.877 14.117 242.631 14.117C258.385 14.117 267.541 21.8062 267.541 34.6136C267.541 47.4211 258.385 55.1102 242.631 55.1102C226.877 55.1102 217.72 47.4211 217.72 34.6136ZM259.054 34.6136C259.054 25.6214 251.705 21.2427 242.631 21.2427C233.556 21.2427 226.02 25.6214 226.02 34.6136C226.02 43.6058 233.568 48.0785 242.631 48.0785C251.693 48.0785 259.054 43.735 259.054 34.6136Z" fill="#F9F9F9"/>
<path d="M274 34.6136C274 21.8062 283.156 14.117 298.91 14.117C314.664 14.117 323.821 21.8062 323.821 34.6136C323.821 47.4211 314.664 55.1102 298.91 55.1102C283.156 55.1102 274 47.4211 274 34.6136ZM315.333 34.6136C315.333 25.6214 307.984 21.2427 298.91 21.2427C289.836 21.2427 282.299 25.6214 282.299 34.6136C282.299 43.6058 289.847 48.0785 298.91 48.0785C307.973 48.0785 315.333 43.735 315.333 34.6136Z" fill="#F9F9F9"/>
<path d="M366 47.5737V54.3354H336.663V54.312H331.721V14.9152H339.833V47.5854H366V47.5737Z" fill="#F9F9F9"/>
</svg>
